<svg width="100" height="100" viewBox="0 0 100 100" fill="none" xmlns="http://www.w3.org/2000/svg">
<path d="M50 21.875C41.7236 21.875 34.5337 25.7446 29.3945 31.4453C28.9673 31.3965 28.5889 31.25 28.125 31.25C21.2524 31.25 15.625 36.8774 15.625 43.75C10.2173 47.0459 6.25 52.6123 6.25 59.375C6.25 69.6899 14.6851 78.125 25 78.125H40.625V71.875H25C18.0664 71.875 12.5 66.3086 12.5 59.375C12.5 54.187 15.6494 49.7559 20.1172 47.8516L22.2656 46.9727L21.9727 44.6289C21.9116 44.1162 21.875 43.8232 21.875 43.75C21.875 40.2588 24.6338 37.5 28.125 37.5C28.5645 37.5 29.0527 37.561 29.5898 37.6953L31.543 38.1836L32.7148 36.6211C36.7188 31.4819 42.9688 28.125 50 28.125C60.2417 28.125 68.7866 35.1685 71.1914 44.6289L71.7773 47.0703L74.4141 46.9727C75.0732 46.936 75.2197 46.875 75 46.875C81.9336 46.875 87.5 52.4414 87.5 59.375C87.5 66.3086 81.9336 71.875 75 71.875H59.375V78.125H75C85.3149 78.125 93.75 69.6899 93.75 59.375C93.75 49.5117 85.9741 41.6138 76.2695 40.918C72.4487 29.9194 62.2681 21.875 50 21.875ZM50 46.875L37.5 59.375H46.875V84.375H53.125V59.375H62.5L50 46.875Z" fill="#BBBAB9"/>
</svg>
